<?xml version="1.0" encoding="utf-8"?>
<!-- Generator: Adobe Illustrator 23.0.3, SVG Export Plug-In . SVG Version: 6.00 Build 0)  -->
<svg version="1.1" id="Layer_1" xmlns="http://www.w3.org/2000/svg" xmlns:xlink="http://www.w3.org/1999/xlink" x="0px" y="0px"
	 viewBox="0 0 1100 650" style="enable-background:new 0 0 1100 650;" xml:space="preserve">
<style type="text/css">
	.st0{fill:#1B2A4A;}
	.st1{fill:#2E75B6;}
	.st2{display:none;}
	.st3{display:inline;}
	.st4{display:inline;fill:#2E75B6;}
	.st5{display:inline;fill:#1B2A4A;}
	.st6{display:none;fill:#2E75B6;}
	.st7{display:none;fill:#1B2A4A;}
	.st8{fill:#FFFFFF;}
	.st9{fill:url(#SVGID_1_);}
</style>
<rect class="st0" width="1100" height="650"/>
<g class="st2">
	<g class="st3">
		<path class="st1" d="M77.24,407.76H49.47l8.56-13.58c1.48-2.35,4.06-3.77,6.84-3.77h27.82l-8.53,13.53
			C82.67,406.32,80.05,407.76,77.24,407.76"/>
	</g>
	<polygon class="st4" points="86.6,394.25 115.04,353.89 134.62,353.89 107.58,394.04 	"/>
	<g class="st3">
		<path class="st0" d="M173.43,407.76h27.76l-8.56-13.58c-1.48-2.35-4.06-3.77-6.84-3.77h-27.82l8.53,13.53
			C168,406.32,170.62,407.76,173.43,407.76"/>
	</g>
	<polygon class="st5" points="164.07,394.25 135.62,353.89 116.05,353.89 143.09,394.04 	"/>
	<path class="st4" d="M157.41,344.21h-19.57l26.36,39.14h20.81L157.41,344.21z M66.06,383.35h20.81l26.36-39.14H93.66L66.06,383.35z
		"/>
	<polygon class="st4" points="108,347.04 143.07,347.04 125.03,324.24 	"/>
</g>
<g class="st2">
	<path class="st4" d="M119.24,198.76H91.47l8.56-13.58c1.48-2.35,4.06-3.77,6.84-3.77h27.82l-8.53,13.53
		C124.67,197.32,122.05,198.76,119.24,198.76"/>
</g>
<polygon class="st6" points="128.6,185.25 157.04,144.89 176.62,144.89 149.58,185.04 "/>
<g class="st2">
	<path class="st5" d="M215.43,198.76h27.76l-8.56-13.58c-1.48-2.35-4.06-3.77-6.84-3.77h-27.82l8.53,13.53
		C210,197.32,212.62,198.76,215.43,198.76"/>
</g>
<polygon class="st7" points="206.07,185.25 177.62,144.89 158.05,144.89 185.09,185.04 "/>
<path class="st6" d="M199.41,135.21h-19.57l26.36,39.14h20.81L199.41,135.21z M108.06,174.35h20.81l26.36-39.14h-19.57
	L108.06,174.35z"/>
<polygon class="st6" points="150,138.04 185.07,138.04 167.03,115.24 "/>
<g>
	<g>
		<path class="st8" d="M351.83,376.49l-4.36,10.77h-12.91l24.07-55.44h12.91l23.68,55.44h-13.38l-4.36-10.77H351.83z M364.74,344.89
			l-8.79,21.54h17.5L364.74,344.89z"/>
		<path class="st8" d="M442.9,342.44v44.82h-12.51v-44.82h-16.87v-10.61h46.33v10.61H442.9z"/>
		<path class="st8" d="M510.85,364.69l-8,8.87v13.7h-12.51v-55.44h12.51v25.18l23.05-25.18h14.49l-20.83,23.13l22.25,32.31h-15.05
			L510.85,364.69z"/>
		<path class="st8" d="M572.46,387.26v-55.44h12.51v55.44H572.46z"/>
		<path class="st8" d="M659.81,387.26l-26.85-35.56v35.56H621v-55.44h11.4l26.93,35.64v-35.64h11.88v55.44H659.81z"/>
		<path class="st8" d="M748.5,337.29l-4.83,10.37c-5.86-3.48-12.83-5.7-17.26-5.7c-4.2,0-7.05,1.5-7.05,4.51
			c0,10.22,29.54,4.51,29.46,24.47c0,10.85-9.42,16.71-21.7,16.71c-9.11,0-18.21-3.48-24.47-8.79l4.99-10.22
			c5.7,5.07,13.78,8.32,19.64,8.32c5.15,0,8.24-1.9,8.24-5.31c0-10.45-29.54-4.36-29.54-24c0-10.06,8.63-16.39,21.46-16.39
			C735.2,331.27,742.96,333.65,748.5,337.29z"/>
	</g>
	<g>
		<g>
			<path class="st8" d="M389.31,404.81c1.99,0,3.56,0.48,4.71,1.43c1.14,0.95,1.72,2.27,1.72,3.94c0,1.67-0.57,2.98-1.72,3.94
				c-1.14,0.95-2.71,1.43-4.71,1.43h-3.81v4.66h-2.2v-15.4H389.31z M389.24,413.63c1.39,0,2.46-0.3,3.19-0.89
				c0.73-0.59,1.1-1.45,1.1-2.56c0-1.11-0.37-1.97-1.1-2.56c-0.73-0.59-1.8-0.89-3.19-0.89h-3.74v6.91H389.24z"/>
			<path class="st8" d="M415.46,418.29h8.97v1.91h-11.17v-15.4h10.87v1.91h-8.67v4.73h7.72v1.87h-7.72V418.29z"/>
			<path class="st8" d="M454.99,420.21h-2.4l-3.32-4.73c-0.41,0.03-0.73,0.04-0.97,0.04h-3.81v4.68h-2.2v-15.4h6
				c1.99,0,3.56,0.48,4.71,1.43c1.14,0.95,1.72,2.27,1.72,3.94c0,1.19-0.29,2.2-0.88,3.04c-0.59,0.83-1.42,1.44-2.51,1.83
				L454.99,420.21z M448.23,413.65c1.39,0,2.46-0.3,3.19-0.9c0.73-0.6,1.1-1.46,1.1-2.57c0-1.11-0.37-1.97-1.1-2.56
				c-0.73-0.59-1.8-0.89-3.19-0.89h-3.74v6.93H448.23z"/>
			<path class="st8" d="M483.45,406.72h-8.67v5.37h7.72v1.89h-7.72v6.22h-2.2v-15.4h10.87V406.72z"/>
			<path class="st8" d="M507.62,420.38c-2.36,0-4.32-0.75-5.87-2.24c-1.55-1.5-2.33-3.37-2.33-5.63c0-2.26,0.78-4.14,2.33-5.63
				c1.55-1.5,3.51-2.24,5.87-2.24c2.35,0,4.29,0.75,5.84,2.24c1.55,1.5,2.32,3.37,2.32,5.63c0,2.26-0.77,4.13-2.32,5.63
				C511.91,419.64,509.97,420.38,507.62,420.38z M507.62,418.43c1.7,0,3.12-0.56,4.26-1.68c1.14-1.12,1.7-2.53,1.7-4.23
				c0-1.7-0.57-3.11-1.7-4.23c-1.14-1.12-2.56-1.68-4.26-1.68c-1.73,0-3.16,0.56-4.3,1.68c-1.14,1.12-1.7,2.53-1.7,4.23
				c0,1.7,0.57,3.11,1.7,4.23C504.46,417.87,505.89,418.43,507.62,418.43z"/>
			<path class="st8" d="M546.14,420.21h-2.4l-3.32-4.73c-0.41,0.03-0.73,0.04-0.97,0.04h-3.81v4.68h-2.2v-15.4h6
				c1.99,0,3.56,0.48,4.71,1.43c1.14,0.95,1.72,2.27,1.72,3.94c0,1.19-0.29,2.2-0.88,3.04c-0.59,0.83-1.42,1.44-2.51,1.83
				L546.14,420.21z M539.38,413.65c1.39,0,2.46-0.3,3.19-0.9c0.73-0.6,1.1-1.46,1.1-2.57c0-1.11-0.37-1.97-1.1-2.56
				c-0.73-0.59-1.8-0.89-3.19-0.89h-3.74v6.93H539.38z"/>
			<path class="st8" d="M580.12,420.21h-2.11l-0.02-11.22l-5.56,9.35h-1.01l-5.57-9.28v11.15h-2.11v-15.4h1.8l6.42,10.82l6.33-10.82
				h1.8L580.12,420.21z"/>
			<path class="st8" d="M610.54,420.21l-1.69-3.85h-8.18l-1.69,3.85h-2.27l6.97-15.4h2.18l7,15.4H610.54z M601.43,414.6h6.64
				l-3.32-7.54L601.43,414.6z"/>
			<path class="st8" d="M640.47,404.81h2.2v15.4h-1.8l-9.24-11.48v11.48h-2.2v-15.4h1.8l9.24,11.48V404.81z"/>
			<path class="st8" d="M668.47,420.38c-2.33,0-4.27-0.74-5.82-2.23c-1.55-1.49-2.32-3.37-2.32-5.64c0-2.27,0.77-4.15,2.32-5.64
				c1.55-1.49,3.49-2.23,5.84-2.23c2.48,0,4.43,0.8,5.85,2.4l-1.43,1.39c-1.16-1.22-2.6-1.83-4.33-1.83c-1.75,0-3.19,0.56-4.33,1.68
				c-1.14,1.12-1.72,2.53-1.72,4.23c0,1.7,0.57,3.11,1.72,4.23c1.14,1.12,2.59,1.68,4.33,1.68c1.72,0,3.16-0.62,4.33-1.85l1.43,1.39
				C672.91,419.58,670.95,420.38,668.47,420.38z"/>
			<path class="st8" d="M693.99,418.29h8.97v1.91h-11.17v-15.4h10.87v1.91h-8.67v4.73h7.72v1.87h-7.72V418.29z"/>
		</g>
	</g>
	<g>
		<path class="st1" d="M554.41,232.23h-26.9l-35.38,50.19h-33.57c-3.81,0-7.36,1.96-9.39,5.18l-11.77,18.66h38.16
			c3.87,0,7.46-1.98,9.52-5.25l6.03-9.57c1.5-2.37,4.1-3.83,6.9-3.85l19.25-0.18L554.41,232.23z"/>
		<linearGradient id="SVGID_1_" gradientUnits="userSpaceOnUse" x1="495.9018" y1="271.5633" x2="495.9018" y2="187.7808">
			<stop  offset="0" style="stop-color:#FFFFFF"/>
			<stop  offset="1" style="stop-color:#000000"/>
		</linearGradient>
		<path class="st9" d="M554.41,232.23h-26.9l-35.38,50.19h-33.57c-3.81,0-7.36,1.96-9.39,5.18l-11.77,18.66h38.16
			c3.87,0,7.46-1.98,9.52-5.25l6.03-9.57c1.5-2.37,4.1-3.83,6.9-3.85l19.25-0.18L554.41,232.23z"/>
		<path class="st1" d="M460.2,272.71h22.5c3.81,0,7.37-1.9,9.5-5.05l32.82-48.74h-21.24c-3.55,0-6.87,1.72-8.92,4.62L460.2,272.71z"
			/>
		<path class="st1" d="M528.1,232.23H555l35.38,50.19h33.57c3.81,0,7.36,1.96,9.39,5.18l11.77,18.66h-38.16
			c-3.87,0-7.46-1.98-9.52-5.25l-6.03-9.57c-1.5-2.37-4.1-3.83-6.9-3.85l-19.25-0.18L528.1,232.23z"/>
		<path class="st1" d="M587.65,223.54c-2.04-2.9-5.37-4.62-8.92-4.62h-21.24l32.82,48.74c2.13,3.16,5.69,5.05,9.5,5.05h22.5
			L587.65,223.54z"/>
		<polygon class="st1" points="517.83,222.8 566.03,222.8 541.24,191.47 		"/>
	</g>
</g>
</svg>
